# Blender 4.3.2
# www.blender.org
mtllib foosball_table_01.mtl
o foosball_table
v -60.120003 -0.000000 -33.999996
v -60.120003 -0.000001 -10.159996
v -68.120003 -0.000001 -10.159996
v -71.120003 0.000000 -38.099998
v 71.120003 0.000000 -38.099998
v 60.120003 -0.000000 -33.999996
v -68.120003 -0.000002 10.160004
v -71.120003 -0.000003 38.100006
v 60.120003 -0.000003 34.000000
v 71.120003 -0.000003 38.100006
v -60.120003 -0.000003 34.000000
v -60.120003 -0.000002 10.160004
v 60.120003 -0.000001 -10.159996
v 68.120003 -0.000001 -10.159996
v 68.120003 -0.000002 10.160004
v 60.120003 -0.000002 10.160004
v -60.120003 11.100000 -33.999996
v -60.120003 7.775375 -8.472864
v -60.120003 7.702111 -8.778032
v -60.120003 7.582012 -9.067980
v -60.120003 7.418033 -9.335566
v -60.120003 7.214212 -9.574211
v -60.120003 11.099998 34.000000
v -60.120003 6.112867 10.135380
v -60.120003 6.418032 10.062119
v -60.120003 7.214212 9.574219
v -60.120003 7.418033 9.335575
v -60.120003 7.582011 9.067982
v -60.120003 7.702111 8.778038
v -60.120003 7.775375 8.472874
v -60.120003 7.799998 8.160004
v -60.120003 7.799999 -8.159996
v -60.120003 6.975569 -9.778032
v -60.120003 6.707980 -9.942009
v -60.120003 6.418032 -10.062111
v -60.120003 -0.000003 34.000000
v -60.120003 -0.000002 10.160004
v -60.120003 5.799998 10.160004
v -60.120003 6.707979 9.942017
v -60.120003 6.975569 9.778038
v -60.120003 -0.000001 -10.159996
v -60.120003 -0.000000 -33.999996
v -60.120003 5.799999 -10.159996
v -60.120003 6.112868 -10.135374
v 71.120003 11.100000 -38.099998
v 71.120003 11.099998 38.100006
v -71.120003 11.100000 -38.099998
v -71.120003 11.099998 38.100006
v 60.120003 11.100000 -33.999996
v 60.120003 11.099998 34.000000
v 60.120003 -0.000003 34.000000
v 60.120003 7.775375 8.472874
v 60.120003 7.702111 8.778038
v 60.120003 6.112868 -10.135374
v 60.120003 6.418032 -10.062111
v 60.120003 6.707980 -9.942009
v 60.120003 6.975569 -9.778032
v 60.120003 7.214212 -9.574211
v 60.120003 7.418033 -9.335566
v 60.120003 7.582012 -9.067980
v 60.120003 7.702111 -8.778032
v 60.120003 7.582011 9.067982
v 60.120003 7.418033 9.335575
v 60.120003 7.214212 9.574219
v 60.120003 -0.000000 -33.999996
v 60.120003 -0.000001 -10.159996
v 60.120003 5.799999 -10.159996
v 60.120003 7.775375 -8.472864
v 60.120003 7.799999 -8.159996
v 60.120003 7.799998 8.160004
v 60.120003 6.975569 9.778038
v 60.120003 6.707979 9.942017
v 60.120003 6.418032 10.062119
v 60.120003 -0.000002 10.160004
v 60.120003 5.799998 10.160004
v 60.120003 6.112867 10.135380
v 68.120003 5.799999 -10.159996
v 68.120003 7.799999 -8.159996
v 68.120003 7.799998 8.160004
v 68.120003 5.799998 10.160004
v 68.120003 -0.000002 10.160004
v 68.120003 6.112867 10.135380
v 68.120003 7.775375 -8.472864
v 68.120003 7.702111 -8.778032
v 68.120003 6.707980 -9.942009
v 68.120003 6.418032 -10.062111
v 68.120003 6.112868 -10.135374
v 68.120003 6.975569 9.778038
v 68.120003 7.214212 9.574219
v 68.120003 7.418033 9.335575
v 68.120003 6.418032 10.062119
v 68.120003 6.707979 9.942017
v 68.120003 7.775375 8.472874
v 68.120003 7.702111 8.778038
v 68.120003 7.582012 -9.067980
v 68.120003 7.418033 -9.335566
v 68.120003 6.975569 -9.778032
v 68.120003 7.214212 -9.574211
v 68.120003 7.582011 9.067982
v -68.120003 5.799999 -10.159996
v -60.120003 -0.000002 10.160004
v -68.120003 5.799998 10.160004
v -68.120003 -0.000002 10.160004
v -68.120003 7.799998 8.160004
v -68.120003 7.799999 -8.159996
v -68.120003 7.775375 8.472874
v -68.120003 7.702111 8.778038
v -68.120003 7.702111 -8.778032
v -68.120003 7.775375 -8.472864
v -68.120003 6.112868 -10.135374
v -68.120003 6.418032 -10.062111
v -68.120003 7.582012 -9.067980
v -68.120003 7.418033 -9.335566
v -68.120003 6.707980 -9.942009
v -68.120003 6.975569 -9.778032
v -68.120003 7.214212 -9.574211
v -68.120003 6.707979 9.942017
v -68.120003 6.418032 10.062119
v -68.120003 6.112867 10.135380
v -68.120003 7.582011 9.067982
v -68.120003 7.418033 9.335575
v -68.120003 6.975569 9.778038
v -68.120003 7.214212 9.574219
vn -0.0000 -1.0000 -0.0000
vn 1.0000 -0.0000 -0.0000
vn -0.0000 -0.0000 -1.0000
vn -1.0000 -0.0000 -0.0000
vn -0.0000 -0.0000 1.0000
vn -0.0000 1.0000 -0.0000
vn -1.0000 0.0002 -0.0000
vn -1.0000 0.0001 -0.0000
vn -1.0000 -0.0001 -0.0000
vn -0.0000 -0.0785 -0.9969
vn -0.0000 -0.2334 -0.9724
vn -0.0000 -0.3827 -0.9239
vn -0.0000 -0.5225 -0.8526
vn -0.0000 -0.6494 -0.7604
vn -0.0000 -0.7604 -0.6494
vn -0.0000 -0.8526 -0.5225
vn -0.0000 -0.9239 -0.3827
vn -0.0000 -0.9724 -0.2334
vn -0.0000 -0.9969 -0.0785
vn -0.0000 -0.9969 0.0785
vn -0.0000 -0.9724 0.2334
vn -0.0000 -0.9239 0.3827
vn -0.0000 -0.8526 0.5225
vn -0.0000 -0.7604 0.6494
vn -0.0000 -0.6494 0.7604
vn -0.0000 -0.5225 0.8526
vn -0.0000 -0.3827 0.9239
vn -0.0000 -0.2334 0.9724
vn -0.0000 -0.0785 0.9969
s 0
f 1//1 2//1 3//1
f 4//1 5//1 6//1
f 7//1 8//1 3//1
f 3//1 8//1 4//1
f 3//1 4//1 1//1
f 1//1 4//1 6//1
f 9//1 10//1 11//1
f 11//1 10//1 8//1
f 11//1 8//1 12//1
f 12//1 8//1 7//1
f 13//1 6//1 14//1
f 14//1 6//1 5//1
f 14//1 5//1 15//1
f 15//1 5//1 10//1
f 15//1 10//1 16//1
f 16//1 10//1 9//1
f 17//2 18//2 19//2
f 19//2 20//2 17//2
f 17//2 20//2 21//2
f 17//2 21//2 22//2
f 23//2 24//2 25//2
f 26//2 27//2 23//2
f 23//2 27//2 28//2
f 23//2 28//2 29//2
f 29//2 30//2 23//2
f 23//2 30//2 31//2
f 23//2 31//2 17//2
f 17//2 31//2 32//2
f 17//2 32//2 18//2
f 22//2 33//2 17//2
f 17//2 33//2 34//2
f 17//2 34//2 35//2
f 36//2 37//2 23//2
f 23//2 37//2 38//2
f 23//2 38//2 24//2
f 25//2 39//2 23//2
f 23//2 39//2 40//2
f 23//2 40//2 26//2
f 41//2 42//2 43//2
f 43//2 42//2 17//2
f 43//2 17//2 44//2
f 44//2 17//2 35//2
f 45//2 46//2 5//2
f 5//2 46//2 10//2
f 47//3 45//3 4//3
f 4//3 45//3 5//3
f 48//4 47//4 8//4
f 8//4 47//4 4//4
f 46//5 48//5 10//5
f 10//5 48//5 8//5
f 49//6 45//6 17//6
f 17//6 45//6 47//6
f 17//6 47//6 23//6
f 23//6 47//6 48//6
f 23//6 48//6 50//6
f 50//6 48//6 46//6
f 50//6 46//6 49//6
f 49//6 46//6 45//6
f 50//3 51//3 23//3
f 23//3 51//3 36//3
f 52//4 53//4 50//4
f 54//4 55//4 49//4
f 55//4 56//4 49//4
f 49//4 56//4 57//4
f 49//4 57//4 58//4
f 58//4 59//4 49//4
f 49//4 59//4 60//4
f 49//4 60//4 61//4
f 53//7 62//7 50//7
f 50//4 62//4 63//4
f 50//4 63//4 64//4
f 65//4 66//4 49//4
f 49//4 66//4 67//4
f 49//8 67//8 54//8
f 61//4 68//4 49//4
f 49//4 68//4 69//4
f 49//4 69//4 50//4
f 50//4 69//4 70//4
f 50//4 70//4 52//4
f 64//4 71//4 50//4
f 50//4 71//4 72//4
f 50//4 72//4 73//4
f 74//4 51//4 75//4
f 75//4 51//4 50//4
f 75//4 50//4 76//4
f 76//8 50//8 73//8
f 17//5 42//5 49//5
f 49//5 42//5 65//5
f 67//5 13//5 77//5
f 77//5 13//5 14//5
f 78//1 79//1 69//1
f 69//1 79//1 70//1
f 80//3 81//3 75//3
f 75//3 81//3 16//3
f 81//4 80//4 79//4
f 79//4 80//4 82//4
f 81//4 79//4 14//4
f 14//4 79//4 78//4
f 14//4 78//4 77//4
f 77//4 78//4 83//4
f 77//4 83//4 84//4
f 85//4 86//4 84//4
f 84//9 86//9 87//9
f 84//4 87//4 77//4
f 88//4 89//4 90//4
f 82//4 91//4 79//4
f 79//9 91//9 92//9
f 79//8 92//8 93//8
f 93//4 92//4 94//4
f 84//4 95//4 85//4
f 85//8 95//8 96//8
f 85//4 96//4 97//4
f 97//4 96//4 98//4
f 88//4 90//4 92//4
f 92//4 90//4 99//4
f 92//4 99//4 94//4
f 100//5 3//5 43//5
f 43//5 3//5 2//5
f 38//3 101//3 102//3
f 102//3 101//3 103//3
f 104//1 105//1 31//1
f 31//1 105//1 32//1
f 103//2 3//2 102//2
f 102//2 3//2 100//2
f 106//2 107//2 102//2
f 108//2 109//2 100//2
f 100//2 109//2 105//2
f 100//2 105//2 102//2
f 102//2 105//2 104//2
f 102//2 104//2 106//2
f 100//2 110//2 108//2
f 108//2 110//2 111//2
f 108//2 111//2 112//2
f 112//2 111//2 113//2
f 114//2 115//2 111//2
f 111//2 115//2 116//2
f 111//2 116//2 113//2
f 117//2 118//2 107//2
f 107//2 118//2 119//2
f 107//2 119//2 102//2
f 107//2 120//2 117//2
f 117//2 120//2 121//2
f 117//2 121//2 122//2
f 122//2 121//2 123//2
f 38//10 102//10 24//10
f 24//10 102//10 119//10
f 24//11 119//11 25//11
f 25//11 119//11 118//11
f 25//12 118//12 39//12
f 39//12 118//12 117//12
f 39//13 117//13 40//13
f 40//13 117//13 122//13
f 40//14 122//14 26//14
f 26//14 122//14 123//14
f 26//15 123//15 27//15
f 27//15 123//15 121//15
f 27//16 121//16 28//16
f 28//16 121//16 120//16
f 28//17 120//17 29//17
f 29//17 120//17 107//17
f 29//18 107//18 30//18
f 30//18 107//18 106//18
f 30//19 106//19 31//19
f 31//19 106//19 104//19
f 32//20 105//20 18//20
f 18//20 105//20 109//20
f 18//21 109//21 19//21
f 19//21 109//21 108//21
f 19//22 108//22 20//22
f 20//22 108//22 112//22
f 20//23 112//23 21//23
f 21//23 112//23 113//23
f 21//24 113//24 22//24
f 22//24 113//24 116//24
f 22//25 116//25 33//25
f 33//25 116//25 115//25
f 33//26 115//26 34//26
f 34//26 115//26 114//26
f 34//27 114//27 35//27
f 35//27 114//27 111//27
f 35//28 111//28 44//28
f 44//28 111//28 110//28
f 44//29 110//29 43//29
f 43//29 110//29 100//29
f 67//29 77//29 54//29
f 54//29 77//29 87//29
f 54//28 87//28 55//28
f 55//28 87//28 86//28
f 55//27 86//27 56//27
f 56//27 86//27 85//27
f 56//26 85//26 57//26
f 57//26 85//26 97//26
f 57//25 97//25 58//25
f 58//25 97//25 98//25
f 58//24 98//24 59//24
f 59//24 98//24 96//24
f 59//23 96//23 60//23
f 60//23 96//23 95//23
f 60//22 95//22 61//22
f 61//22 95//22 84//22
f 61//21 84//21 68//21
f 68//21 84//21 83//21
f 68//20 83//20 69//20
f 69//20 83//20 78//20
f 70//19 79//19 52//19
f 52//19 79//19 93//19
f 52//18 93//18 53//18
f 53//18 93//18 94//18
f 53//17 94//17 62//17
f 62//17 94//17 99//17
f 62//16 99//16 63//16
f 63//16 99//16 90//16
f 63//15 90//15 64//15
f 64//15 90//15 89//15
f 64//14 89//14 71//14
f 71//14 89//14 88//14
f 71//13 88//13 72//13
f 72//13 88//13 92//13
f 72//12 92//12 73//12
f 73//12 92//12 91//12
f 73//11 91//11 76//11
f 76//11 91//11 82//11
f 76//10 82//10 75//10
f 75//10 82//10 80//10
