# File generated by ImageToStl.com - Free Image and 3D model conversion tools

o obj1
v -5.15 -11 0
v -1.5 -11 0
v -5.15 -11 3
v -1.5 -11 1.2
v 5.15 -11 3
v 1.5 -11 1.2
v 5.15 -11 0
v 1.5 -11 0
v 5.15 11 0
v 1.5 11 0
v 5.15 11 3
v 1.5 11 1.2
v -5.15 11 3
v -1.5 11 1.2
v -5.15 11 0
v -1.5 11 0
v 5 10 3
v 1.5 10 0
v 5 10 0
v 1.5 10 1.2
v -5 10 3
v -1.5 10 1.2
v -5 10 0
v -1.5 10 0
v -5 -10 3
v -1.5 -10 0
v -5 -10 0
v -1.5 -10 1.2
v 5 -10 3
v 1.5 -10 1.2
v 5 -10 0
v 1.5 -10 0
v 5.15 -1.1 2.5
v 5.15 1.129289 2.429289
v 5.15 1.1 2.5
v 5.15 8.429289 2.570711
v 5.15 6.1 2.5
v 5.15 8.4 2.5
v 5.15 8.429289 2.429289
v 5.15 5.929289 2.570711
v 5.15 3.7 2.5
v 5.15 5.9 2.5
v 5.15 5.929289 2.429289
v 5.15 1.2 2.4
v 5.15 6 2.4
v 5.15 6 2.6
v 5.15 8.5 2.6
v 5.15 -3.5 2.5
v 5.15 -1.2 2.4
v 5.15 -1.270711 2.429289
v 5.15 -1.3 2.5
v 5.15 -1.270711 2.570711
v 5.15 -5.9 2.5
v 5.15 -3.6 2.4
v 5.15 -3.670711 2.429289
v 5.15 -3.7 2.5
v 5.15 -3.670711 2.570711
v 5.15 -8.4 2.5
v 5.15 -6 2.4
v 5.15 -6.070711 2.429289
v 5.15 -6.1 2.5
v 5.15 -6.070711 2.570711
v 5.15 1.3 2.5
v 5.15 3.6 2.4
v 5.15 3.529289 2.429289
v 5.15 3.5 2.5
v 5.15 3.529289 2.570711
v 5.15 3.6 2.6
v 5.15 -8.6 2.5
v 5.15 -8.570711 2.570711
v 5.15 -8.5 2.6
v 5.15 1.2 2.6
v 5.15 1.270711 2.570711
v 5.15 3.670711 2.570711
v 5.15 6.070711 2.570711
v 5.15 8.570711 2.570711
v 5.15 8.6 2.5
v 5.15 8.570711 2.429289
v 5.15 8.5 2.4
v 5.15 6.070711 2.429289
v 5.15 3.670711 2.429289
v 5.15 1.270711 2.429289
v 5.15 -1.129289 2.429289
v 5.15 -3.529289 2.429289
v 5.15 -5.929289 2.429289
v 5.15 -8.429289 2.429289
v 5.15 -8.5 2.4
v 5.15 -8.570711 2.429289
v 5.15 1.129289 2.570711
v 5.15 -1.129289 2.570711
v 5.15 -1.2 2.6
v 5.15 -3.6 2.6
v 5.15 -3.529289 2.570711
v 5.15 -6 2.6
v 5.15 -5.929289 2.570711
v 5.15 -8.429289 2.570711
v -5.15 3.5 2.5
v -5.15 1.270711 2.429289
v -5.15 1.3 2.5
v -5.15 -8.429289 2.570711
v -5.15 -6.1 2.5
v -5.15 -8.4 2.5
v -5.15 -8.429289 2.429289
v -5.15 -5.929289 2.570711
v -5.15 -3.7 2.5
v -5.15 -5.9 2.5
v -5.15 -5.929289 2.429289
v -5.15 -3.529289 2.570711
v -5.15 -1.3 2.5
v -5.15 -3.5 2.5
v -5.15 -3.529289 2.429289
v -5.15 1.2 2.4
v -5.15 -3.6 2.4
v -5.15 -6 2.4
v -5.15 -3.6 2.6
v -5.15 -6 2.6
v -5.15 -8.5 2.6
v -5.15 5.9 2.5
v -5.15 3.6 2.4
v -5.15 3.670711 2.429289
v -5.15 3.7 2.5
v -5.15 3.670711 2.570711
v -5.15 8.4 2.5
v -5.15 6 2.4
v -5.15 6.070711 2.429289
v -5.15 6.1 2.5
v -5.15 6.070711 2.570711
v -5.15 1.1 2.5
v -5.15 -1.2 2.4
v -5.15 -1.129289 2.429289
v -5.15 -1.1 2.5
v -5.15 -1.129289 2.570711
v -5.15 8.6 2.5
v -5.15 8.570711 2.570711
v -5.15 8.5 2.6
v -5.15 -1.2 2.6
v -5.15 -1.270711 2.570711
v -5.15 -3.670711 2.570711
v -5.15 -6.070711 2.570711
v -5.15 -8.570711 2.570711
v -5.15 -8.6 2.5
v -5.15 -8.570711 2.429289
v -5.15 -8.5 2.4
v -5.15 -6.070711 2.429289
v -5.15 -3.670711 2.429289
v -5.15 -1.270711 2.429289
v -5.15 1.129289 2.429289
v -5.15 3.529289 2.429289
v -5.15 5.929289 2.429289
v -5.15 8.429289 2.429289
v -5.15 8.5 2.4
v -5.15 8.570711 2.429289
v -5.15 1.2 2.6
v -5.15 1.129289 2.570711
v -5.15 1.270711 2.570711
v -5.15 3.529289 2.570711
v -5.15 3.6 2.6
v -5.15 6 2.6
v -5.15 5.929289 2.570711
v -5.15 8.429289 2.570711
v -5 1.3 2.5
v -5 1.270711 2.429289
v -5 3.5 2.5
v -5 -8.4 2.5
v -5 -6.1 2.5
v -5 -8.429289 2.570711
v -5 -8.429289 2.429289
v -5 -5.9 2.5
v -5 -3.7 2.5
v -5 -5.929289 2.570711
v -5 -5.929289 2.429289
v -5 -3.5 2.5
v -5 -1.3 2.5
v -5 -3.529289 2.570711
v -5 -3.529289 2.429289
v -5 1.2 2.4
v -5 -3.6 2.4
v -5 -3.6 2.6
v -5 -6 2.6
v -5 -8.5 2.6
v -5 5.9 2.5
v -5 3.670711 2.570711
v -5 3.7 2.5
v -5 3.670711 2.429289
v -5 3.6 2.4
v -5 8.4 2.5
v -5 6.070711 2.570711
v -5 6.1 2.5
v -5 6.070711 2.429289
v -5 6 2.4
v -5 1.1 2.5
v -5 -1.129289 2.570711
v -5 -1.1 2.5
v -5 -1.129289 2.429289
v -5 -1.2 2.4
v -5 8.5 2.6
v -5 8.570711 2.570711
v -5 8.6 2.5
v -5 -8.6 2.5
v -5 -8.570711 2.570711
v -5 -6.070711 2.570711
v -5 -3.670711 2.570711
v -5 -1.270711 2.570711
v -5 -1.2 2.6
v -5 8.5 2.4
v -5 8.429289 2.429289
v -5 5.929289 2.429289
v -5 3.529289 2.429289
v -5 1.129289 2.429289
v -5 -1.270711 2.429289
v -5 -3.670711 2.429289
v -5 -6 2.4
v -5 -6.070711 2.429289
v -5 -8.5 2.4
v -5 -8.570711 2.429289
v -5 8.570711 2.429289
v -5 1.2 2.6
v -5 1.129289 2.570711
v -5 3.6 2.6
v -5 3.529289 2.570711
v -5 1.270711 2.570711
v -5 6 2.6
v -5 5.929289 2.570711
v -5 8.429289 2.570711
v 5 1.1 2.5
v 5 1.129289 2.429289
v 5 -1.1 2.5
v 5 8.4 2.5
v 5 6.1 2.5
v 5 8.429289 2.570711
v 5 8.429289 2.429289
v 5 5.9 2.5
v 5 3.7 2.5
v 5 5.929289 2.570711
v 5 5.929289 2.429289
v 5 1.2 2.4
v 5 6 2.6
v 5 8.5 2.6
v 5 -3.5 2.5
v 5 -1.270711 2.570711
v 5 -1.3 2.5
v 5 -1.270711 2.429289
v 5 -1.2 2.4
v 5 -5.9 2.5
v 5 -3.670711 2.570711
v 5 -3.7 2.5
v 5 -3.670711 2.429289
v 5 -3.6 2.4
v 5 -8.4 2.5
v 5 -6.070711 2.570711
v 5 -6.1 2.5
v 5 -6.070711 2.429289
v 5 -6 2.4
v 5 1.3 2.5
v 5 3.6 2.6
v 5 3.529289 2.570711
v 5 3.5 2.5
v 5 3.529289 2.429289
v 5 3.6 2.4
v 5 -8.5 2.6
v 5 -8.570711 2.570711
v 5 -8.6 2.5
v 5 8.6 2.5
v 5 8.570711 2.570711
v 5 6.070711 2.570711
v 5 3.670711 2.570711
v 5 1.270711 2.570711
v 5 1.2 2.6
v 5 -8.5 2.4
v 5 -8.429289 2.429289
v 5 -5.929289 2.429289
v 5 -3.529289 2.429289
v 5 -1.129289 2.429289
v 5 1.270711 2.429289
v 5 3.670711 2.429289
v 5 6 2.4
v 5 6.070711 2.429289
v 5 8.5 2.4
v 5 8.570711 2.429289
v 5 -8.570711 2.429289
v 5 -1.2 2.6
v 5 -1.129289 2.570711
v 5 1.129289 2.570711
v 5 -3.6 2.6
v 5 -3.529289 2.570711
v 5 -6 2.6
v 5 -5.929289 2.570711
v 5 -8.429289 2.570711
vn 0 -1 0
vn -0 1 0
vn -0 0 -1
vn -0 0 -1
vn 0 0 -1
vn -0 0 -1
vn 0 0 -1
vn 0 -0 -1
vn 0 0 -1
vn 0 0 -1
vn 1 0 0
vn -1 0 0
vn 1 0 0
vn -1 0 0
vn 0 -0.38268 0.92388
vn 0 -0.92388 0.38268
vn 0 0.38268 0.92388
vn 0 0.92388 0.38268
vn 0 0.38268 -0.92388
vn 0 0.92388 -0.38268
vn -0 -0.38268 -0.92388
vn -0 -0.92388 -0.38268
vn 0 -0.38268 0.92388
vn 0 0.92388 0.38269
vn 0 0.92388 -0.38269
vn -0 -0.38268 -0.92388
vn 0 -0.38268 0.92388
vn 0 0.38268 0.92388
vn 0 0.38268 -0.92388
vn -0 -0.38268 -0.92388
vn -0 -0.92388 -0.38269
vn 0 -0.92388 0.38269
vn 0 0.38268 -0.92388
vn 0 0.38268 0.92388
vn -0 0 1
f 1//1 2//1 3//1
f 3//1 2//1 4//1
f 3//1 4//1 5//1
f 5//1 4//1 6//1
f 5//1 6//1 7//1
f 7//1 6//1 8//1
f 9//2 10//2 11//2
f 11//2 10//2 12//2
f 11//2 12//2 13//2
f 13//2 12//2 14//2
f 13//2 14//2 15//2
f 15//2 14//2 16//2
f 17//1 18//1 19//1
f 18//1 17//1 20//1
f 20//1 17//1 21//1
f 20//1 21//1 22//1
f 22//1 21//1 23//1
f 22//1 23//1 24//1
f 25//2 26//2 27//2
f 26//2 25//2 28//2
f 28//2 25//2 29//2
f 28//2 29//2 30//2
f 30//2 29//2 31//2
f 30//2 31//2 32//2
f 9//3 18//3 10//3
f 18//4 9//4 19//4
f 19//5 9//5 7//5
f 19//5 7//5 31//5
f 31//5 7//5 8//5
f 31//6 8//6 32//6
f 1//7 26//7 2//7
f 26//8 1//8 27//8
f 27//5 1//5 15//5
f 27//5 15//5 23//5
f 23//9 15//9 16//9
f 23//10 16//10 24//10
f 4//11 2//11 28//11
f 28//11 2//11 26//11
f 22//11 24//11 14//11
f 14//11 24//11 16//11
f 8//12 6//12 32//12
f 32//12 6//12 30//12
f 18//12 20//12 10//12
f 10//12 20//12 12//12
f 4//5 28//5 6//5
f 6//5 28//5 30//5
f 22//5 14//5 20//5
f 20//5 14//5 12//5
f 33//11 34//11 35//11
f 36//13 37//13 38//13
f 37//13 39//13 38//13
f 40//11 41//11 42//11
f 41//11 43//11 42//11
f 44//11 34//11 33//11
f 45//11 43//11 41//11
f 40//13 46//13 41//13
f 36//11 47//11 37//11
f 48//13 49//13 50//13
f 48//11 50//11 51//11
f 48//11 51//11 52//11
f 53//13 54//13 55//13
f 53//11 55//11 56//11
f 53//11 56//11 57//11
f 58//11 59//11 60//11
f 58//13 60//13 61//13
f 58//13 61//13 62//13
f 63//13 64//13 65//13
f 63//11 65//11 66//11
f 63//11 66//11 67//11
f 63//11 67//11 68//11
f 5//11 7//11 69//11
f 5//11 69//11 70//11
f 5//11 70//11 71//11
f 5//11 71//11 11//11
f 11//11 72//11 73//11
f 11//11 73//11 63//11
f 11//11 63//11 68//11
f 11//11 68//11 74//11
f 11//11 74//11 41//11
f 11//11 41//11 46//11
f 11//13 46//13 75//13
f 11//11 75//11 37//11
f 11//11 37//11 47//11
f 11//11 47//11 76//11
f 11//11 76//11 77//11
f 11//11 77//11 9//11
f 9//11 77//11 78//11
f 9//13 78//13 79//13
f 9//13 79//13 39//13
f 9//11 39//11 37//11
f 9//11 37//11 80//11
f 9//11 80//11 45//11
f 9//11 45//11 41//11
f 9//11 41//11 81//11
f 9//11 81//11 64//11
f 9//11 64//11 63//11
f 9//11 63//11 82//11
f 9//11 82//11 44//11
f 9//11 44//11 33//11
f 9//13 33//13 83//13
f 9//11 83//11 49//11
f 9//11 49//11 48//11
f 9//11 48//11 84//11
f 9//11 84//11 54//11
f 9//11 54//11 53//11
f 9//11 53//11 85//11
f 9//13 85//13 59//13
f 9//11 59//11 58//11
f 9//11 58//11 86//11
f 9//11 86//11 87//11
f 7//11 9//11 87//11
f 7//13 87//13 88//13
f 7//11 88//11 69//11
f 35//11 89//11 33//11
f 33//11 89//11 72//11
f 33//11 72//11 90//11
f 90//11 72//11 11//11
f 90//11 11//11 91//11
f 92//11 93//11 11//11
f 11//11 93//11 91//11
f 93//11 48//11 91//11
f 91//13 48//13 52//13
f 94//11 95//11 11//11
f 11//11 95//11 92//11
f 95//11 53//11 92//11
f 92//13 53//13 57//13
f 71//11 96//11 11//11
f 11//11 96//11 94//11
f 96//11 58//11 94//11
f 94//11 58//11 62//11
f 97//12 98//12 99//12
f 100//14 101//14 102//14
f 101//14 103//14 102//14
f 104//12 105//12 106//12
f 105//12 107//12 106//12
f 108//12 109//12 110//12
f 109//12 111//12 110//12
f 112//12 98//12 97//12
f 113//12 111//12 109//12
f 114//12 107//12 105//12
f 108//14 115//14 109//14
f 104//14 116//14 105//14
f 100//12 117//12 101//12
f 118//14 119//14 120//14
f 118//12 120//12 121//12
f 118//12 121//12 122//12
f 123//12 124//12 125//12
f 123//14 125//14 126//14
f 123//14 126//14 127//14
f 128//12 129//12 130//12
f 128//12 130//12 131//12
f 128//12 131//12 132//12
f 13//12 15//12 133//12
f 13//12 133//12 134//12
f 13//12 134//12 135//12
f 13//12 135//12 3//12
f 3//12 136//12 137//12
f 3//12 137//12 109//12
f 3//12 109//12 115//12
f 3//12 115//12 138//12
f 3//12 138//12 105//12
f 3//12 105//12 116//12
f 3//14 116//14 139//14
f 3//12 139//12 101//12
f 3//12 101//12 117//12
f 3//12 117//12 140//12
f 3//12 140//12 141//12
f 3//12 141//12 1//12
f 1//12 141//12 142//12
f 1//14 142//14 143//14
f 1//14 143//14 103//14
f 1//12 103//12 101//12
f 1//12 101//12 144//12
f 1//12 144//12 114//12
f 1//12 114//12 105//12
f 1//12 105//12 145//12
f 1//12 145//12 113//12
f 1//12 113//12 109//12
f 1//12 109//12 146//12
f 1//12 146//12 129//12
f 1//12 129//12 128//12
f 1//14 128//14 147//14
f 1//12 147//12 112//12
f 1//12 112//12 97//12
f 1//12 97//12 148//12
f 1//12 148//12 119//12
f 1//12 119//12 118//12
f 1//12 118//12 149//12
f 1//14 149//14 124//14
f 1//12 124//12 123//12
f 1//12 123//12 150//12
f 1//12 150//12 151//12
f 15//12 1//12 151//12
f 15//14 151//14 152//14
f 15//12 152//12 133//12
f 153//12 154//12 3//12
f 3//12 154//12 136//12
f 154//12 128//12 136//12
f 136//12 128//12 132//12
f 99//12 155//12 97//12
f 97//12 155//12 153//12
f 97//12 153//12 156//12
f 156//12 153//12 3//12
f 156//14 3//14 157//14
f 158//12 159//12 3//12
f 3//12 159//12 157//12
f 159//12 118//12 157//12
f 157//14 118//14 122//14
f 135//12 160//12 3//12
f 3//12 160//12 158//12
f 160//12 123//12 158//12
f 158//12 123//12 127//12
f 161//11 162//11 163//11
f 164//13 165//13 166//13
f 164//13 167//13 165//13
f 168//11 169//11 170//11
f 168//11 171//11 169//11
f 172//11 173//11 174//11
f 172//11 175//11 173//11
f 163//11 162//11 176//11
f 173//11 175//11 177//11
f 173//13 178//13 174//13
f 169//13 179//13 170//13
f 165//11 180//11 166//11
f 181//11 182//11 183//11
f 181//11 183//11 184//11
f 181//11 184//11 185//11
f 186//13 187//13 188//13
f 186//13 188//13 189//13
f 186//11 189//11 190//11
f 191//11 192//11 193//11
f 191//11 193//11 194//11
f 191//11 194//11 195//11
f 21//11 25//11 196//11
f 21//11 196//11 197//11
f 21//11 197//11 198//11
f 21//11 198//11 23//11
f 25//11 27//11 199//11
f 25//11 199//11 200//11
f 25//11 200//11 180//11
f 25//11 180//11 165//11
f 25//11 165//11 201//11
f 25//11 201//11 179//11
f 25//11 179//11 169//11
f 25//11 169//11 202//11
f 25//11 202//11 178//11
f 25//11 178//11 173//11
f 25//13 173//13 203//13
f 25//11 203//11 204//11
f 27//11 205//11 206//11
f 27//11 206//11 186//11
f 27//11 186//11 190//11
f 27//11 190//11 207//11
f 27//11 207//11 181//11
f 27//11 181//11 185//11
f 27//11 185//11 208//11
f 27//11 208//11 163//11
f 27//11 163//11 176//11
f 27//11 176//11 209//11
f 27//11 209//11 191//11
f 27//11 191//11 195//11
f 27//11 195//11 210//11
f 27//11 210//11 173//11
f 27//11 173//11 177//11
f 27//11 177//11 211//11
f 27//11 211//11 169//11
f 27//11 169//11 171//11
f 27//11 171//11 212//11
f 27//11 212//11 213//11
f 27//13 213//13 165//13
f 27//11 165//11 167//11
f 27//11 167//11 214//11
f 27//13 214//13 215//13
f 27//13 215//13 199//13
f 23//13 198//13 216//13
f 23//13 216//13 205//13
f 23//11 205//11 27//11
f 217//11 25//11 218//11
f 218//11 25//11 204//11
f 218//11 204//11 191//11
f 191//11 204//11 192//11
f 219//11 25//11 220//11
f 220//11 25//11 217//11
f 220//11 217//11 163//11
f 163//11 217//11 221//11
f 163//11 221//11 161//11
f 222//11 25//11 223//11
f 223//11 25//11 219//11
f 223//11 219//11 181//11
f 181//11 219//11 182//11
f 196//11 25//11 224//11
f 224//11 25//11 222//11
f 224//11 222//11 186//11
f 186//11 222//11 187//11
f 225//12 226//12 227//12
f 228//14 229//14 230//14
f 228//14 231//14 229//14
f 232//12 233//12 234//12
f 232//12 235//12 233//12
f 227//12 226//12 236//12
f 233//14 237//14 234//14
f 229//12 238//12 230//12
f 239//12 240//12 241//12
f 239//12 241//12 242//12
f 239//12 242//12 243//12
f 244//12 245//12 246//12
f 244//12 246//12 247//12
f 244//12 247//12 248//12
f 249//14 250//14 251//14
f 249//14 251//14 252//14
f 249//12 252//12 253//12
f 254//14 255//14 256//14
f 254//12 256//12 257//12
f 254//12 257//12 258//12
f 254//12 258//12 259//12
f 29//12 17//12 260//12
f 29//12 260//12 261//12
f 29//12 261//12 262//12
f 29//12 262//12 31//12
f 17//12 19//12 263//12
f 17//12 263//12 264//12
f 17//12 264//12 238//12
f 17//12 238//12 229//12
f 17//12 229//12 265//12
f 17//12 265//12 237//12
f 17//12 237//12 233//12
f 17//12 233//12 266//12
f 17//12 266//12 255//12
f 17//12 255//12 254//12
f 17//14 254//14 267//14
f 17//12 267//12 268//12
f 19//12 269//12 270//12
f 19//12 270//12 249//12
f 19//12 249//12 253//12
f 19//12 253//12 271//12
f 19//12 271//12 244//12
f 19//12 244//12 248//12
f 19//12 248//12 272//12
f 19//12 272//12 239//12
f 19//12 239//12 243//12
f 19//12 243//12 273//12
f 19//12 273//12 227//12
f 19//12 227//12 236//12
f 19//12 236//12 274//12
f 19//12 274//12 254//12
f 19//12 254//12 259//12
f 19//12 259//12 275//12
f 19//12 275//12 233//12
f 19//12 233//12 235//12
f 19//12 235//12 276//12
f 19//12 276//12 277//12
f 19//14 277//14 229//14
f 19//12 229//12 231//12
f 19//12 231//12 278//12
f 19//14 278//14 279//14
f 19//14 279//14 263//14
f 31//14 262//14 280//14
f 31//14 280//14 269//14
f 31//12 269//12 19//12
f 281//12 17//12 282//12
f 282//12 17//12 268//12
f 282//12 268//12 227//12
f 227//12 268//12 283//12
f 227//12 283//12 225//12
f 284//12 17//12 285//12
f 285//12 17//12 281//12
f 285//12 281//12 239//12
f 239//12 281//12 240//12
f 286//12 17//12 287//12
f 287//12 17//12 284//12
f 287//12 284//12 244//12
f 244//12 284//12 245//12
f 260//12 17//12 288//12
f 288//12 17//12 286//12
f 288//12 286//12 249//12
f 249//12 286//12 250//12
f 243//15 83//15 273//15
f 273//16 83//16 33//16
f 273//16 33//16 227//16
f 83//15 243//15 49//15
f 49//17 243//17 242//17
f 49//17 242//17 50//17
f 50//18 242//18 241//18
f 50//18 241//18 51//18
f 129//15 194//15 130//15
f 130//16 194//16 193//16
f 130//16 193//16 131//16
f 194//15 129//15 195//15
f 195//17 129//17 146//17
f 195//17 146//17 210//17
f 210//18 146//18 109//18
f 210//18 109//18 173//18
f 281//19 52//19 240//19
f 240//20 52//20 51//20
f 240//20 51//20 241//20
f 52//19 281//19 91//19
f 91//21 281//21 282//21
f 91//21 282//21 90//21
f 90//22 282//22 227//22
f 90//22 227//22 33//22
f 136//19 203//19 137//19
f 137//20 203//20 173//20
f 137//20 173//20 109//20
f 203//19 136//19 204//19
f 204//21 136//21 132//21
f 204//21 132//21 192//21
f 192//22 132//22 131//22
f 192//22 131//22 193//22
f 248//23 84//23 272//23
f 272//16 84//16 48//16
f 272//16 48//16 239//16
f 84//23 248//23 54//23
f 54//17 248//17 247//17
f 54//17 247//17 55//17
f 55//24 247//24 246//24
f 55//24 246//24 56//24
f 113//23 175//23 111//23
f 111//16 175//16 172//16
f 111//16 172//16 110//16
f 175//23 113//23 177//23
f 177//17 113//17 145//17
f 177//17 145//17 211//17
f 211//24 145//24 105//24
f 211//24 105//24 169//24
f 284//19 57//19 245//19
f 245//25 57//25 56//25
f 245//25 56//25 246//25
f 57//19 284//19 92//19
f 92//26 284//26 285//26
f 92//26 285//26 93//26
f 93//22 285//22 239//22
f 93//22 239//22 48//22
f 115//19 202//19 138//19
f 138//25 202//25 169//25
f 138//25 169//25 105//25
f 202//19 115//19 178//19
f 178//26 115//26 108//26
f 178//26 108//26 174//26
f 174//22 108//22 110//22
f 174//22 110//22 172//22
f 253//23 85//23 271//23
f 271//16 85//16 53//16
f 271//16 53//16 244//16
f 85//23 253//23 59//23
f 59//17 253//17 252//17
f 59//17 252//17 60//17
f 60//18 252//18 251//18
f 60//18 251//18 61//18
f 114//23 171//23 107//23
f 107//16 171//16 168//16
f 107//16 168//16 106//16
f 171//23 114//23 212//23
f 212//17 114//17 144//17
f 212//17 144//17 213//17
f 213//18 144//18 101//18
f 213//18 101//18 165//18
f 286//19 62//19 250//19
f 250//20 62//20 61//20
f 250//20 61//20 251//20
f 62//19 286//19 94//19
f 94//26 286//26 287//26
f 94//26 287//26 95//26
f 95//22 287//22 244//22
f 95//22 244//22 53//22
f 116//19 201//19 139//19
f 139//20 201//20 165//20
f 139//20 165//20 101//20
f 201//19 116//19 179//19
f 179//26 116//26 104//26
f 179//26 104//26 170//26
f 170//22 104//22 106//22
f 170//22 106//22 168//22
f 269//27 86//27 270//27
f 270//16 86//16 58//16
f 270//16 58//16 249//16
f 86//27 269//27 87//27
f 87//28 269//28 280//28
f 87//28 280//28 88//28
f 88//18 280//18 262//18
f 88//18 262//18 69//18
f 143//27 167//27 103//27
f 103//16 167//16 164//16
f 103//16 164//16 102//16
f 167//27 143//27 214//27
f 214//28 143//28 142//28
f 214//28 142//28 215//28
f 215//18 142//18 141//18
f 215//18 141//18 199//18
f 260//29 70//29 261//29
f 261//20 70//20 69//20
f 261//20 69//20 262//20
f 70//29 260//29 71//29
f 71//30 260//30 288//30
f 71//30 288//30 96//30
f 96//22 288//22 249//22
f 96//22 249//22 58//22
f 117//29 200//29 140//29
f 140//20 200//20 199//20
f 140//20 199//20 141//20
f 200//29 117//29 180//29
f 180//30 117//30 100//30
f 180//30 100//30 166//30
f 166//22 100//22 102//22
f 166//22 102//22 164//22
f 255//19 67//19 256//19
f 256//20 67//20 66//20
f 256//20 66//20 257//20
f 67//19 255//19 68//19
f 68//26 255//26 266//26
f 68//26 266//26 74//26
f 74//31 266//31 233//31
f 74//31 233//31 41//31
f 157//19 220//19 156//19
f 156//20 220//20 163//20
f 156//20 163//20 97//20
f 220//19 157//19 219//19
f 219//26 157//26 122//26
f 219//26 122//26 182//26
f 182//31 122//31 121//31
f 182//31 121//31 183//31
f 259//23 81//23 275//23
f 275//32 81//32 41//32
f 275//32 41//32 233//32
f 81//23 259//23 64//23
f 64//17 259//17 258//17
f 64//17 258//17 65//17
f 65//18 258//18 257//18
f 65//18 257//18 66//18
f 119//23 184//23 120//23
f 120//32 184//32 183//32
f 120//32 183//32 121//32
f 184//23 119//23 185//23
f 185//17 119//17 148//17
f 185//17 148//17 208//17
f 208//18 148//18 97//18
f 208//18 97//18 163//18
f 237//19 40//19 234//19
f 234//20 40//20 42//20
f 234//20 42//20 232//20
f 40//19 237//19 46//19
f 46//26 237//26 265//26
f 46//26 265//26 75//26
f 75//22 265//22 229//22
f 75//22 229//22 37//22
f 158//19 223//19 159//19
f 159//20 223//20 181//20
f 159//20 181//20 118//20
f 223//19 158//19 222//19
f 222//26 158//26 127//26
f 222//26 127//26 187//26
f 187//22 127//22 126//22
f 187//22 126//22 188//22
f 276//23 80//23 277//23
f 277//16 80//16 37//16
f 277//16 37//16 229//16
f 80//23 276//23 45//23
f 45//17 276//17 235//17
f 45//17 235//17 43//17
f 43//18 235//18 232//18
f 43//18 232//18 42//18
f 124//23 189//23 125//23
f 125//16 189//16 188//16
f 125//16 188//16 126//16
f 189//23 124//23 190//23
f 190//17 124//17 149//17
f 190//17 149//17 207//17
f 207//18 149//18 118//18
f 207//18 118//18 181//18
f 238//29 36//29 230//29
f 230//20 36//20 38//20
f 230//20 38//20 228//20
f 36//29 238//29 47//29
f 47//30 238//30 264//30
f 47//30 264//30 76//30
f 76//22 264//22 263//22
f 76//22 263//22 77//22
f 135//29 224//29 160//29
f 160//20 224//20 186//20
f 160//20 186//20 123//20
f 224//29 135//29 196//29
f 196//30 135//30 134//30
f 196//30 134//30 197//30
f 197//22 134//22 133//22
f 197//22 133//22 198//22
f 278//27 78//27 279//27
f 279//16 78//16 77//16
f 279//16 77//16 263//16
f 78//27 278//27 79//27
f 79//28 278//28 231//28
f 79//28 231//28 39//28
f 39//18 231//18 228//18
f 39//18 228//18 38//18
f 151//27 216//27 152//27
f 152//16 216//16 198//16
f 152//16 198//16 133//16
f 216//27 151//27 205//27
f 205//28 151//28 150//28
f 205//28 150//28 206//28
f 206//18 150//18 123//18
f 206//18 123//18 186//18
f 268//33 89//33 283//33
f 283//20 89//20 35//20
f 283//20 35//20 225//20
f 89//33 268//33 72//33
f 72//26 268//26 267//26
f 72//26 267//26 73//26
f 73//22 267//22 254//22
f 73//22 254//22 63//22
f 153//33 218//33 154//33
f 154//20 218//20 191//20
f 154//20 191//20 128//20
f 218//33 153//33 217//33
f 217//26 153//26 155//26
f 217//26 155//26 221//26
f 221//22 155//22 99//22
f 221//22 99//22 161//22
f 236//23 82//23 274//23
f 274//16 82//16 63//16
f 274//16 63//16 254//16
f 82//23 236//23 44//23
f 44//34 236//34 226//34
f 44//34 226//34 34//34
f 34//18 226//18 225//18
f 34//18 225//18 35//18
f 112//23 162//23 98//23
f 98//16 162//16 161//16
f 98//16 161//16 99//16
f 162//23 112//23 176//23
f 176//34 112//34 147//34
f 176//34 147//34 209//34
f 209//18 147//18 128//18
f 209//18 128//18 191//18
f 11//35 17//35 5//35
f 5//35 17//35 29//35
f 5//35 29//35 3//35
f 3//35 29//35 25//35
f 3//35 25//35 13//35
f 13//35 25//35 21//35
f 13//35 21//35 11//35
f 11//35 21//35 17//35
# Vertices: 288, normals: 35, texture coordinates: 0, faces: 640

